<svg xmlns="http://www.w3.org/2000/svg" width="120" height="120" viewBox="0 0 120 120">
  <defs>
    <g id="a">
      <path fill="#7dd3fc" d="M12 2v6c0 1 1 2 2 2s2-1 2-2V2h-4zm0 8a3 3 0 0 0-3 4v8a3 3 0 0 0 6 0v-8a3 3 0 0 0-3-4z"/>
      <ellipse cx="12" cy="24" rx="4" ry="6" fill="#7dd3fc"/>
    </g>
    <g id="b">
      <path fill="#a78bfa" d="M12 2v6c0 1 1 2 2 2s2-1 2-2V2h-4zm0 8a3 3 0 0 0-3 4v8a3 3 0 0 0 6 0v-8a3 3 0 0 0-3-4z"/>
      <ellipse cx="12" cy="24" rx="4" ry="6" fill="#a78bfa"/>
    </g>
    <g id="c">
      <path fill="#86efac" d="M4 12a8 6 0 0 1 16 0 8 6 0 0 1-16 0z"/>
      <path fill="none" stroke="#22c55e" stroke-width=".8" d="M8 11a4 3 0 0 1 8 0"/>
    </g>
    <g id="d">
      <path fill="#fde047" d="M4 12a8 6 0 0 1 16 0 8 6 0 0 1-16 0z"/>
      <path fill="none" stroke="#eab308" stroke-width=".8" d="M8 11a4 3 0 0 1 8 0"/>
    </g>
    <g id="e">
      <path fill="#f9a8d4" d="M12 2v6c0 1 1 2 2 2s2-1 2-2V2h-4zm0 8a3 3 0 0 0-3 4v8a3 3 0 0 0 6 0v-8a3 3 0 0 0-3-4z"/>
      <ellipse cx="12" cy="24" rx="4" ry="6" fill="#f9a8d4"/>
    </g>
    <g id="f">
      <path fill="#93c5fd" d="M4 12a8 6 0 0 1 16 0 8 6 0 0 1-16 0z"/>
      <path fill="none" stroke="#3b82f6" stroke-width=".8" d="M8 11a4 3 0 0 1 8 0"/>
    </g>
  </defs>
  <use href="#a" x="8" y="8" opacity="0.5"/>
  <use href="#b" x="68" y="68" opacity="0.5" transform="rotate(-15 88 88)"/>
  <use href="#c" x="50" y="5" opacity="0.5"/>
  <use href="#d" x="5" y="55" opacity="0.5" transform="rotate(20 25 65)"/>
  <use href="#e" x="78" y="22" opacity="0.45"/>
  <use href="#f" x="42" y="48" opacity="0.45"/>
</svg>
